<svg xmlns="http://www.w3.org/2000/svg" role="img" viewBox="0 0 24 24"><path d="M12 .297c-6.63 0-12 5.373-12 12 0 5.303 3.438 9.8 8.205 11.385.6.113.82-.258.82-.577 0-.285-.01-1.04-.015-2.04-3.338.724-4.042-1.61-4.042-1.61-.546-1.387-1.333-1.757-1.333-1.757-1.09-.745.084-.729.084-.729 1.205.084 1.84 1.236 1.84 1.236 1.07 1.834 2.809 1.304 3.495.997.108-.775.418-1.305.762-1.605-2.665-.3-5.466-1.332-5.466-5.93 0-1.31.468-2.38 1.236-3.22-.124-.303-.536-1.523.117-3.176 0 0 1.008-.322 3.3 1.23a11.5 11.5 0 0 1 3.003-.404c1.02.005 2.047.138 3.003.404 2.29-1.552 3.295-1.23 3.295-1.23.655 1.653.243 2.873.12 3.176.77.84 1.235 1.91 1.235 3.22 0 4.61-2.807 5.625-5.48 5.92.43.37.823 1.096.823 2.21 0 1.596-.014 2.883-.014 3.276 0 .32.216.694.825.576C20.565 22.092 24 17.592 24 12.297c0-6.627-5.373-12-12-12"/></svg>
